<svg width="16" height="16" viewBox="0 0 16 16" fill="none" xmlns="http://www.w3.org/2000/svg">
<g clip-path="url(#clip0_1_6)">
<path d="M14.5713 14.2854C14.931 14.2854 15.2426 14.1666 15.5076 13.9321L10.9745 9.3989C10.8657 9.47678 10.7603 9.55251 10.6607 9.62452C10.3215 9.87446 10.0462 10.0695 9.83476 10.2092C9.62337 10.3493 9.34212 10.4921 8.99104 10.6379C8.63972 10.7838 8.31242 10.8565 8.0088 10.8565H7.99991H7.99103C7.68738 10.8565 7.36008 10.7838 7.00879 10.6379C6.65751 10.4921 6.37625 10.3493 6.16507 10.2092C5.95368 10.0695 5.6785 9.87449 5.33909 9.62452C5.24451 9.55518 5.13961 9.4791 5.02621 9.39768L0.492279 13.9321C0.757176 14.1666 1.06902 14.2854 1.42864 14.2854H14.5713Z" fill="white"/>
<path d="M0.901882 6.54451C0.562678 6.31837 0.261876 6.05937 0 5.76763V12.6646L3.99542 8.66915C3.19611 8.11112 2.16624 7.40372 0.901882 6.54451Z" fill="white"/>
<path d="M15.1072 6.54452C13.8911 7.36765 12.8574 8.07626 12.0062 8.67075L16.0001 12.6647V5.76763C15.744 6.0535 15.4464 6.31233 15.1072 6.54452Z" fill="white"/>
<path d="M14.5713 1.71409H1.42865C0.970138 1.71409 0.617629 1.86892 0.370684 2.17826C0.123535 2.48775 0.000164032 2.87479 0.000164032 3.33897C0.000164032 3.7139 0.163884 4.12015 0.491179 4.55783C0.818474 4.99534 1.16674 5.33898 1.53581 5.58895C1.73814 5.7319 2.34828 6.15607 3.36624 6.86132C3.91576 7.24212 4.39365 7.57404 4.80431 7.86046C5.15435 8.10435 5.45623 8.31557 5.70547 8.49085C5.73408 8.51092 5.77908 8.54311 5.8388 8.58581C5.90315 8.63203 5.98457 8.69068 6.08502 8.76321C6.27846 8.90311 6.43916 9.0162 6.56715 9.10259C6.69497 9.18901 6.84983 9.28554 7.0315 9.39273C7.21303 9.49978 7.38424 9.58027 7.54494 9.63381C7.70567 9.68732 7.85445 9.71416 7.99133 9.71416H8.00022H8.00911C8.14596 9.71416 8.29478 9.68732 8.45554 9.63381C8.61621 9.58027 8.78728 9.49995 8.96895 9.39273C9.15045 9.28554 9.3051 9.18881 9.43332 9.10259C9.56131 9.0162 9.72201 8.90314 9.91548 8.76321C10.0157 8.69068 10.0972 8.632 10.1615 8.58596C10.2212 8.54308 10.2662 8.5111 10.295 8.49085C10.4892 8.35574 10.7917 8.1454 11.1985 7.86293C11.9388 7.34862 13.0289 6.59163 14.4736 5.58895C14.9081 5.28548 15.2711 4.91926 15.5628 4.49081C15.854 4.06237 16 3.61296 16 3.14271C16 2.74983 15.8585 2.41364 15.576 2.13364C15.2931 1.85399 14.9582 1.71409 14.5713 1.71409Z" fill="white"/>
</g>
<defs>
<clipPath id="clip0_1_6">
<rect width="16" height="16" fill="white"/>
</clipPath>
</defs>
</svg>
