<svg width="13" height="16" viewBox="0 0 13 16" fill="none" xmlns="http://www.w3.org/2000/svg">
<path d="M10.9371 11.4371L8.3896 10.1635C8.14933 10.0432 8 9.8016 8 9.5328V8.6312C8.06107 8.55653 8.12533 8.47147 8.19173 8.3776C8.52213 7.91093 8.78693 7.39147 8.97947 6.8312C9.35573 6.65867 9.6 6.28667 9.6 5.86667V4.8C9.6 4.5432 9.504 4.2944 9.33333 4.1V2.6816C9.34827 2.53493 9.40693 1.66187 8.77547 0.9416C8.22773 0.3168 7.33893 0 6.13333 0C4.92773 0 4.03893 0.3168 3.4912 0.941333C2.85973 1.6616 2.9184 2.53493 2.93333 2.6816V4.1C2.76267 4.2944 2.66667 4.5432 2.66667 4.8V5.86667C2.66667 6.1912 2.81413 6.49387 3.06587 6.69573C3.31013 7.66293 3.82133 8.39173 4 8.6256V9.508C4 9.76613 3.8592 10.0029 3.6328 10.1267L1.25387 11.4243C0.480267 11.8464 0 12.6555 0 13.5365V14.4C0 15.6656 4.012 16 6.13333 16C8.25467 16 12.2667 15.6656 12.2667 14.4V13.5885C12.2667 12.6717 11.7571 11.8472 10.9371 11.4371Z" fill="white"/>
</svg>
